<svg width="1024" height="753" viewBox="0 0 1024 753" fill="none" xmlns="http://www.w3.org/2000/svg">
<g clip-path="url(#clip0_122_130)">
<rect width="1024" height="753" fill="#121214"/>
<g opacity="0.2" filter="url(#filter0_f_122_130)">
<ellipse cx="511.5" cy="170" rx="670.5" ry="350" fill="#338AF3"/>
</g>
<path d="M32.0349 406C33.5302 406 34.6622 406.63 35.4308 407.891C36.2134 409.138 36.6047 410.953 36.6047 413.336C36.6047 415.719 36.2134 417.541 35.4308 418.802C34.6622 420.063 33.5302 420.693 32.0349 420.693C30.5536 420.693 29.4216 420.063 28.639 418.802C27.8564 417.541 27.4651 415.719 27.4651 413.336C27.4651 410.967 27.8564 409.152 28.639 407.891C29.4216 406.63 30.5536 406 32.0349 406ZM28.9534 413.336C28.9534 415.026 29.1072 416.35 29.4146 417.306L34.0683 408.099C33.5791 407.448 32.9013 407.122 32.0349 407.122C31.0706 407.122 30.316 407.635 29.771 408.66C29.2259 409.672 28.9534 411.23 28.9534 413.336ZM32.0349 419.55C33.0131 419.55 33.7748 419.044 34.3198 418.033C34.8648 417.008 35.1373 415.442 35.1373 413.336C35.1373 411.549 34.9627 410.163 34.6133 409.18L29.9596 418.469C30.4627 419.19 31.1545 419.55 32.0349 419.55Z" fill="url(#paint0_linear_122_130)" fill-opacity="0.6"/>
<path d="M33.2926 443.135H36.3741V444.236H28.3874V443.135H31.9511V431.455L28.5551 433.471L27.9682 432.536L32.1607 429.959H33.2926V443.135Z" fill="url(#paint1_linear_122_130)" fill-opacity="0.6"/>
<path d="M32.0349 453.502C33.5302 453.502 34.6622 454.133 35.4308 455.393C36.2134 456.64 36.6047 458.455 36.6047 460.838C36.6047 463.221 36.2134 465.043 35.4308 466.304C34.6622 467.565 33.5302 468.195 32.0349 468.195C30.5536 468.195 29.4216 467.565 28.639 466.304C27.8564 465.043 27.4651 463.221 27.4651 460.838C27.4651 458.469 27.8564 456.654 28.639 455.393C29.4216 454.133 30.5536 453.502 32.0349 453.502ZM28.9534 460.838C28.9534 462.529 29.1072 463.852 29.4146 464.808L34.0683 455.601C33.5791 454.95 32.9013 454.624 32.0349 454.624C31.0706 454.624 30.316 455.137 29.771 456.162C29.2259 457.174 28.9534 458.732 28.9534 460.838ZM32.0349 467.052C33.0131 467.052 33.7748 466.546 34.3198 465.535C34.8648 464.51 35.1373 462.944 35.1373 460.838C35.1373 459.051 34.9627 457.665 34.6133 456.682L29.9596 465.971C30.4627 466.692 31.1545 467.052 32.0349 467.052Z" fill="url(#paint2_linear_122_130)" fill-opacity="0.6"/>
<path d="M33.2926 490.637H36.3741V491.738H28.3874V490.637H31.9511V478.957L28.5551 480.973L27.9682 480.038L32.1607 477.461H33.2926V490.637Z" fill="url(#paint3_linear_122_130)" fill-opacity="0.6"/>
<path d="M33.2926 514.388H36.3741V515.489H28.3874V514.388H31.9511V502.708L28.5551 504.724L27.9682 503.789L32.1607 501.212H33.2926V514.388Z" fill="url(#paint4_linear_122_130)" fill-opacity="0.6"/>
<path d="M32.0349 524.755C33.5302 524.755 34.6622 525.386 35.4308 526.646C36.2134 527.893 36.6047 529.708 36.6047 532.091C36.6047 534.474 36.2134 536.296 35.4308 537.557C34.6622 538.818 33.5302 539.448 32.0349 539.448C30.5536 539.448 29.4216 538.818 28.639 537.557C27.8564 536.296 27.4651 534.474 27.4651 532.091C27.4651 529.722 27.8564 527.907 28.639 526.646C29.4216 525.386 30.5536 524.755 32.0349 524.755ZM28.9534 532.091C28.9534 533.782 29.1072 535.105 29.4146 536.061L34.0683 526.854C33.5791 526.203 32.9013 525.878 32.0349 525.878C31.0706 525.878 30.316 526.39 29.771 527.415C29.2259 528.427 28.9534 529.985 28.9534 532.091ZM32.0349 538.305C33.0131 538.305 33.7748 537.8 34.3198 536.788C34.8648 535.763 35.1373 534.197 35.1373 532.091C35.1373 530.304 34.9627 528.919 34.6133 527.935L29.9596 537.225C30.4627 537.945 31.1545 538.305 32.0349 538.305Z" fill="url(#paint5_linear_122_130)" fill-opacity="0.6"/>
<path d="M33.2926 561.89H36.3741V562.992H28.3874V561.89H31.9511V550.21L28.5551 552.226L27.9682 551.291L32.1607 548.714H33.2926V561.89Z" fill="url(#paint6_linear_122_130)" fill-opacity="0.6"/>
<path d="M32.0349 572.257C33.5302 572.257 34.6622 572.888 35.4308 574.149C36.2134 575.396 36.6047 577.211 36.6047 579.594C36.6047 581.977 36.2134 583.798 35.4308 585.059C34.6622 586.32 33.5302 586.95 32.0349 586.95C30.5536 586.95 29.4216 586.32 28.639 585.059C27.8564 583.798 27.4651 581.977 27.4651 579.594C27.4651 577.224 27.8564 575.409 28.639 574.149C29.4216 572.888 30.5536 572.257 32.0349 572.257ZM28.9534 579.594C28.9534 581.284 29.1072 582.607 29.4146 583.563L34.0683 574.356C33.5791 573.705 32.9013 573.38 32.0349 573.38C31.0706 573.38 30.316 573.892 29.771 574.918C29.2259 575.929 28.9534 577.488 28.9534 579.594ZM32.0349 585.807C33.0131 585.807 33.7748 585.302 34.3198 584.29C34.8648 583.265 35.1373 581.699 35.1373 579.594C35.1373 577.806 34.9627 576.421 34.6133 575.437L29.9596 584.727C30.4627 585.447 31.1545 585.807 32.0349 585.807Z" fill="url(#paint7_linear_122_130)" fill-opacity="0.6"/>
<path d="M32.0349 596.008C33.5302 596.008 34.6622 596.639 35.4308 597.9C36.2134 599.147 36.6047 600.962 36.6047 603.345C36.6047 605.728 36.2134 607.549 35.4308 608.81C34.6622 610.071 33.5302 610.701 32.0349 610.701C30.5536 610.701 29.4216 610.071 28.639 608.81C27.8564 607.549 27.4651 605.728 27.4651 603.345C27.4651 600.975 27.8564 599.16 28.639 597.9C29.4216 596.639 30.5536 596.008 32.0349 596.008ZM28.9534 603.345C28.9534 605.035 29.1072 606.358 29.4146 607.314L34.0683 598.107C33.5791 597.456 32.9013 597.131 32.0349 597.131C31.0706 597.131 30.316 597.643 29.771 598.669C29.2259 599.68 28.9534 601.239 28.9534 603.345ZM32.0349 609.558C33.0131 609.558 33.7748 609.053 34.3198 608.041C34.8648 607.016 35.1373 605.451 35.1373 603.345C35.1373 601.557 34.9627 600.172 34.6133 599.188L29.9596 608.478C30.4627 609.198 31.1545 609.558 32.0349 609.558Z" fill="url(#paint8_linear_122_130)" fill-opacity="0.6"/>
<path d="M33.2926 633.143H36.3741V634.245H28.3874V633.143H31.9511V621.464L28.5551 623.48L27.9682 622.544L32.1607 619.967H33.2926V633.143Z" fill="url(#paint9_linear_122_130)" fill-opacity="0.6"/>
<path d="M32.0349 643.511C33.5302 643.511 34.6622 644.141 35.4308 645.402C36.2134 646.649 36.6047 648.464 36.6047 650.847C36.6047 653.23 36.2134 655.052 35.4308 656.312C34.6622 657.573 33.5302 658.204 32.0349 658.204C30.5536 658.204 29.4216 657.573 28.639 656.312C27.8564 655.052 27.4651 653.23 27.4651 650.847C27.4651 648.478 27.8564 646.663 28.639 645.402C29.4216 644.141 30.5536 643.511 32.0349 643.511ZM28.9534 650.847C28.9534 652.537 29.1072 653.86 29.4146 654.816L34.0683 645.61C33.5791 644.958 32.9013 644.633 32.0349 644.633C31.0706 644.633 30.316 645.145 29.771 646.171C29.2259 647.182 28.9534 648.741 28.9534 650.847ZM32.0349 657.061C33.0131 657.061 33.7748 656.555 34.3198 655.543C34.8648 654.518 35.1373 652.953 35.1373 650.847C35.1373 649.059 34.9627 647.674 34.6133 646.69L29.9596 655.98C30.4627 656.7 31.1545 657.061 32.0349 657.061Z" fill="url(#paint10_linear_122_130)" fill-opacity="0.6"/>
<path d="M33.2926 680.645H36.3741V681.747H28.3874V680.645H31.9511V668.966L28.5551 670.982L27.9682 670.046L32.1607 667.469H33.2926V680.645Z" fill="url(#paint11_linear_122_130)" fill-opacity="0.6"/>
<path d="M33.2926 704.396H36.3741V705.498H28.3874V704.396H31.9511V692.717L28.5551 694.733L27.9682 693.798L32.1607 691.221H33.2926V704.396Z" fill="url(#paint12_linear_122_130)" fill-opacity="0.6"/>
<path d="M70.9651 453.502C72.4604 453.502 73.5924 454.133 74.361 455.393C75.1436 456.64 75.5349 458.455 75.5349 460.838C75.5349 463.221 75.1436 465.043 74.361 466.304C73.5924 467.565 72.4604 468.195 70.9651 468.195C69.4838 468.195 68.3518 467.565 67.5692 466.304C66.7866 465.043 66.3953 463.221 66.3953 460.838C66.3953 458.469 66.7866 456.654 67.5692 455.393C68.3518 454.133 69.4838 453.502 70.9651 453.502ZM67.8836 460.838C67.8836 462.529 68.0374 463.852 68.3448 464.808L72.9985 455.601C72.5093 454.95 71.8315 454.624 70.9651 454.624C70.0008 454.624 69.2462 455.137 68.7012 456.162C68.1561 457.174 67.8836 458.732 67.8836 460.838ZM70.9651 467.052C71.9433 467.052 72.705 466.546 73.25 465.535C73.795 464.51 74.0675 462.944 74.0675 460.838C74.0675 459.051 73.8928 457.665 73.5435 456.682L68.8898 465.971C69.3929 466.692 70.0847 467.052 70.9651 467.052Z" fill="url(#paint13_linear_122_130)" fill-opacity="0.6"/>
<path d="M72.2228 490.637H75.3043V491.738H67.3176V490.637H70.8812V478.957L67.4853 480.973L66.8984 480.038L71.0909 477.461H72.2228V490.637Z" fill="url(#paint14_linear_122_130)" fill-opacity="0.6"/>
<path d="M70.9651 501.004C72.4604 501.004 73.5924 501.635 74.361 502.895C75.1436 504.142 75.5349 505.957 75.5349 508.34C75.5349 510.723 75.1436 512.545 74.361 513.806C73.5924 515.067 72.4604 515.697 70.9651 515.697C69.4838 515.697 68.3518 515.067 67.5692 513.806C66.7866 512.545 66.3953 510.723 66.3953 508.34C66.3953 505.971 66.7866 504.156 67.5692 502.895C68.3518 501.635 69.4838 501.004 70.9651 501.004ZM67.8836 508.34C67.8836 510.031 68.0374 511.354 68.3448 512.31L72.9985 503.103C72.5093 502.452 71.8315 502.126 70.9651 502.126C70.0008 502.126 69.2462 502.639 68.7012 503.664C68.1561 504.676 67.8836 506.234 67.8836 508.34ZM70.9651 514.554C71.9433 514.554 72.705 514.049 73.25 513.037C73.795 512.012 74.0675 510.446 74.0675 508.34C74.0675 506.553 73.8928 505.168 73.5435 504.184L68.8898 513.474C69.3929 514.194 70.0847 514.554 70.9651 514.554Z" fill="url(#paint15_linear_122_130)" fill-opacity="0.6"/>
<path d="M70.9651 524.755C72.4604 524.755 73.5924 525.386 74.361 526.646C75.1436 527.893 75.5349 529.708 75.5349 532.091C75.5349 534.474 75.1436 536.296 74.361 537.557C73.5924 538.818 72.4604 539.448 70.9651 539.448C69.4838 539.448 68.3518 538.818 67.5692 537.557C66.7866 536.296 66.3953 534.474 66.3953 532.091C66.3953 529.722 66.7866 527.907 67.5692 526.646C68.3518 525.386 69.4838 524.755 70.9651 524.755ZM67.8836 532.091C67.8836 533.782 68.0374 535.105 68.3448 536.061L72.9985 526.854C72.5093 526.203 71.8315 525.878 70.9651 525.878C70.0008 525.878 69.2462 526.39 68.7012 527.415C68.1561 528.427 67.8836 529.985 67.8836 532.091ZM70.9651 538.305C71.9433 538.305 72.705 537.8 73.25 536.788C73.795 535.763 74.0675 534.197 74.0675 532.091C74.0675 530.304 73.8928 528.919 73.5435 527.935L68.8898 537.225C69.3929 537.945 70.0847 538.305 70.9651 538.305Z" fill="url(#paint16_linear_122_130)" fill-opacity="0.6"/>
<path d="M72.2228 561.89H75.3043V562.992H67.3176V561.89H70.8812V550.21L67.4853 552.226L66.8984 551.291L71.0909 548.714H72.2228V561.89Z" fill="url(#paint17_linear_122_130)" fill-opacity="0.6"/>
<path d="M70.9651 572.257C72.4604 572.257 73.5924 572.888 74.361 574.149C75.1436 575.396 75.5349 577.211 75.5349 579.594C75.5349 581.977 75.1436 583.798 74.361 585.059C73.5924 586.32 72.4604 586.95 70.9651 586.95C69.4838 586.95 68.3518 586.32 67.5692 585.059C66.7866 583.798 66.3953 581.977 66.3953 579.594C66.3953 577.224 66.7866 575.409 67.5692 574.149C68.3518 572.888 69.4838 572.257 70.9651 572.257ZM67.8836 579.594C67.8836 581.284 68.0374 582.607 68.3448 583.563L72.9985 574.356C72.5093 573.705 71.8315 573.38 70.9651 573.38C70.0008 573.38 69.2462 573.892 68.7012 574.918C68.1561 575.929 67.8836 577.488 67.8836 579.594ZM70.9651 585.807C71.9433 585.807 72.705 585.302 73.25 584.29C73.795 583.265 74.0675 581.699 74.0675 579.594C74.0675 577.806 73.8928 576.421 73.5435 575.437L68.8898 584.727C69.3929 585.447 70.0847 585.807 70.9651 585.807Z" fill="url(#paint18_linear_122_130)" fill-opacity="0.6"/>
<path d="M72.2228 609.392H75.3043V610.494H67.3176V609.392H70.8812V597.713L67.4853 599.728L66.8984 598.793L71.0909 596.216H72.2228V609.392Z" fill="url(#paint19_linear_122_130)" fill-opacity="0.6"/>
<path d="M70.9651 619.76C72.4604 619.76 73.5924 620.39 74.361 621.651C75.1436 622.898 75.5349 624.713 75.5349 627.096C75.5349 629.479 75.1436 631.301 74.361 632.561C73.5924 633.822 72.4604 634.453 70.9651 634.453C69.4838 634.453 68.3518 633.822 67.5692 632.561C66.7866 631.301 66.3953 629.479 66.3953 627.096C66.3953 624.726 66.7866 622.911 67.5692 621.651C68.3518 620.39 69.4838 619.76 70.9651 619.76ZM67.8836 627.096C67.8836 628.786 68.0374 630.109 68.3448 631.065L72.9985 621.859C72.5093 621.207 71.8315 620.882 70.9651 620.882C70.0008 620.882 69.2462 621.394 68.7012 622.42C68.1561 623.431 67.8836 624.99 67.8836 627.096ZM70.9651 633.31C71.9433 633.31 72.705 632.804 73.25 631.792C73.795 630.767 74.0675 629.202 74.0675 627.096C74.0675 625.308 73.8928 623.923 73.5435 622.939L68.8898 632.229C69.3929 632.949 70.0847 633.31 70.9651 633.31Z" fill="url(#paint20_linear_122_130)" fill-opacity="0.6"/>
<path d="M70.9651 643.511C72.4604 643.511 73.5924 644.141 74.361 645.402C75.1436 646.649 75.5349 648.464 75.5349 650.847C75.5349 653.23 75.1436 655.052 74.361 656.312C73.5924 657.573 72.4604 658.204 70.9651 658.204C69.4838 658.204 68.3518 657.573 67.5692 656.312C66.7866 655.052 66.3953 653.23 66.3953 650.847C66.3953 648.478 66.7866 646.663 67.5692 645.402C68.3518 644.141 69.4838 643.511 70.9651 643.511ZM67.8836 650.847C67.8836 652.537 68.0374 653.86 68.3448 654.816L72.9985 645.61C72.5093 644.958 71.8315 644.633 70.9651 644.633C70.0008 644.633 69.2462 645.145 68.7012 646.171C68.1561 647.182 67.8836 648.741 67.8836 650.847ZM70.9651 657.061C71.9433 657.061 72.705 656.555 73.25 655.543C73.795 654.518 74.0675 652.953 74.0675 650.847C74.0675 649.059 73.8928 647.674 73.5435 646.69L68.8898 655.98C69.3929 656.7 70.0847 657.061 70.9651 657.061Z" fill="url(#paint21_linear_122_130)" fill-opacity="0.6"/>
<path d="M72.2228 680.645H75.3043V681.747H67.3176V680.645H70.8812V668.966L67.4853 670.982L66.8984 670.046L71.0909 667.469H72.2228V680.645Z" fill="url(#paint22_linear_122_130)" fill-opacity="0.6"/>
<path d="M70.9651 691.013C72.4604 691.013 73.5924 691.643 74.361 692.904C75.1436 694.151 75.5349 695.966 75.5349 698.349C75.5349 700.732 75.1436 702.554 74.361 703.815C73.5924 705.075 72.4604 705.706 70.9651 705.706C69.4838 705.706 68.3518 705.075 67.5692 703.815C66.7866 702.554 66.3953 700.732 66.3953 698.349C66.3953 695.98 66.7866 694.165 67.5692 692.904C68.3518 691.643 69.4838 691.013 70.9651 691.013ZM67.8836 698.349C67.8836 700.039 68.0374 701.362 68.3448 702.318L72.9985 693.112C72.5093 692.461 71.8315 692.135 70.9651 692.135C70.0008 692.135 69.2462 692.648 68.7012 693.673C68.1561 694.684 67.8836 696.243 67.8836 698.349ZM70.9651 704.563C71.9433 704.563 72.705 704.057 73.25 703.046C73.795 702.02 74.0675 700.455 74.0675 698.349C74.0675 696.562 73.8928 695.176 73.5435 694.192L68.8898 703.482C69.3929 704.202 70.0847 704.563 70.9651 704.563Z" fill="url(#paint23_linear_122_130)" fill-opacity="0.6"/>
<path d="M72.2228 728.148H75.3043V729.249H67.3176V728.148H70.8812V716.468L67.4853 718.484L66.8984 717.549L71.0909 714.972H72.2228V728.148Z" fill="url(#paint24_linear_122_130)" fill-opacity="0.6"/>
<path d="M72.2228 751.899H75.3043V753H67.3176V751.899H70.8812V740.219L67.4853 742.235L66.8984 741.3L71.0909 738.723H72.2228V751.899Z" fill="url(#paint25_linear_122_130)" fill-opacity="0.6"/>
<path d="M12.5698 477.253C14.0651 477.253 15.1971 477.884 15.9657 479.144C16.7483 480.391 17.1396 482.206 17.1396 484.589C17.1396 486.972 16.7483 488.794 15.9657 490.055C15.1971 491.316 14.0651 491.946 12.5698 491.946C11.0885 491.946 9.95649 491.316 9.1739 490.055C8.3913 488.794 8 486.972 8 484.589C8 482.22 8.3913 480.405 9.1739 479.144C9.95649 477.884 11.0885 477.253 12.5698 477.253ZM9.48833 484.589C9.48833 486.28 9.64206 487.603 9.9495 488.559L14.6032 479.352C14.114 478.701 13.4363 478.375 12.5698 478.375C11.6055 478.375 10.8509 478.888 10.3059 479.913C9.76084 480.925 9.48833 482.483 9.48833 484.589ZM12.5698 490.803C13.5481 490.803 14.3097 490.297 14.8547 489.286C15.3997 488.261 15.6722 486.695 15.6722 484.589C15.6722 482.802 15.4976 481.417 15.1482 480.433L10.4945 489.722C10.9976 490.443 11.6894 490.803 12.5698 490.803Z" fill="url(#paint26_linear_122_130)" fill-opacity="0.6"/>
<path d="M12.5698 501.004C14.0651 501.004 15.1971 501.635 15.9657 502.895C16.7483 504.142 17.1396 505.957 17.1396 508.34C17.1396 510.723 16.7483 512.545 15.9657 513.806C15.1971 515.067 14.0651 515.697 12.5698 515.697C11.0885 515.697 9.95649 515.067 9.1739 513.806C8.3913 512.545 8 510.723 8 508.34C8 505.971 8.3913 504.156 9.1739 502.895C9.95649 501.635 11.0885 501.004 12.5698 501.004ZM9.48833 508.34C9.48833 510.031 9.64206 511.354 9.9495 512.31L14.6032 503.103C14.114 502.452 13.4363 502.126 12.5698 502.126C11.6055 502.126 10.8509 502.639 10.3059 503.664C9.76084 504.676 9.48833 506.234 9.48833 508.34ZM12.5698 514.554C13.5481 514.554 14.3097 514.049 14.8547 513.037C15.3997 512.012 15.6722 510.446 15.6722 508.34C15.6722 506.553 15.4976 505.168 15.1482 504.184L10.4945 513.474C10.9976 514.194 11.6894 514.554 12.5698 514.554Z" fill="url(#paint27_linear_122_130)" fill-opacity="0.6"/>
<path d="M13.8276 538.139H16.909V539.24H8.92235V538.139H12.486V526.459L9.09005 528.475L8.5031 527.54L12.6956 524.963H13.8276V538.139Z" fill="url(#paint28_linear_122_130)" fill-opacity="0.6"/>
<path d="M12.5698 548.506C14.0651 548.506 15.1971 549.137 15.9657 550.398C16.7483 551.644 17.1396 553.459 17.1396 555.842C17.1396 558.225 16.7483 560.047 15.9657 561.308C15.1971 562.569 14.0651 563.199 12.5698 563.199C11.0885 563.199 9.95649 562.569 9.1739 561.308C8.3913 560.047 8 558.225 8 555.842C8 553.473 8.3913 551.658 9.1739 550.398C9.95649 549.137 11.0885 548.506 12.5698 548.506ZM9.48833 555.842C9.48833 557.533 9.64206 558.856 9.9495 559.812L14.6032 550.605C14.114 549.954 13.4363 549.629 12.5698 549.629C11.6055 549.629 10.8509 550.141 10.3059 551.166C9.76084 552.178 9.48833 553.737 9.48833 555.842ZM12.5698 562.056C13.5481 562.056 14.3097 561.551 14.8547 560.539C15.3997 559.514 15.6722 557.948 15.6722 555.842C15.6722 554.055 15.4976 552.67 15.1482 551.686L10.4945 560.976C10.9976 561.696 11.6894 562.056 12.5698 562.056Z" fill="url(#paint29_linear_122_130)" fill-opacity="0.6"/>
<path d="M13.8276 585.641H16.909V586.743H8.92235V585.641H12.486V573.962L9.09005 575.977L8.5031 575.042L12.6956 572.465H13.8276V585.641Z" fill="url(#paint30_linear_122_130)" fill-opacity="0.6"/>
<path d="M13.8276 609.392H16.909V610.494H8.92235V609.392H12.486V597.713L9.09005 599.728L8.5031 598.793L12.6956 596.216H13.8276V609.392Z" fill="url(#paint31_linear_122_130)" fill-opacity="0.6"/>
<path d="M52.7577 443.135H55.8392V444.236H47.8525V443.135H51.4162V431.455L48.0202 433.471L47.4333 432.536L51.6258 429.959H52.7577V443.135Z" fill="url(#paint32_linear_122_130)" fill-opacity="0.6"/>
<path d="M51.5 453.502C52.9953 453.502 54.1273 454.133 54.8959 455.393C55.6785 456.64 56.0698 458.455 56.0698 460.838C56.0698 463.221 55.6785 465.043 54.8959 466.304C54.1273 467.565 52.9953 468.195 51.5 468.195C50.0187 468.195 48.8867 467.565 48.1041 466.304C47.3215 465.043 46.9302 463.221 46.9302 460.838C46.9302 458.469 47.3215 456.654 48.1041 455.393C48.8867 454.133 50.0187 453.502 51.5 453.502ZM48.4185 460.838C48.4185 462.529 48.5723 463.852 48.8797 464.808L53.5334 455.601C53.0442 454.95 52.3664 454.624 51.5 454.624C50.5357 454.624 49.7811 455.137 49.2361 456.162C48.691 457.174 48.4185 458.732 48.4185 460.838ZM51.5 467.052C52.4782 467.052 53.2399 466.546 53.7849 465.535C54.3299 464.51 54.6024 462.944 54.6024 460.838C54.6024 459.051 54.4277 457.665 54.0784 456.682L49.4247 465.971C49.9278 466.692 50.6196 467.052 51.5 467.052Z" fill="url(#paint33_linear_122_130)" fill-opacity="0.6"/>
<path d="M52.7577 490.637H55.8392V491.738H47.8525V490.637H51.4162V478.957L48.0202 480.973L47.4333 480.038L51.6258 477.461H52.7577V490.637Z" fill="url(#paint34_linear_122_130)" fill-opacity="0.6"/>
<path d="M52.7577 514.388H55.8392V515.489H47.8525V514.388H51.4162V502.708L48.0202 504.724L47.4333 503.789L51.6258 501.212H52.7577V514.388Z" fill="url(#paint35_linear_122_130)" fill-opacity="0.6"/>
<path d="M51.5 524.755C52.9953 524.755 54.1273 525.386 54.8959 526.646C55.6785 527.893 56.0698 529.708 56.0698 532.091C56.0698 534.474 55.6785 536.296 54.8959 537.557C54.1273 538.818 52.9953 539.448 51.5 539.448C50.0187 539.448 48.8867 538.818 48.1041 537.557C47.3215 536.296 46.9302 534.474 46.9302 532.091C46.9302 529.722 47.3215 527.907 48.1041 526.646C48.8867 525.386 50.0187 524.755 51.5 524.755ZM48.4185 532.091C48.4185 533.782 48.5723 535.105 48.8797 536.061L53.5334 526.854C53.0442 526.203 52.3664 525.878 51.5 525.878C50.5357 525.878 49.7811 526.39 49.2361 527.415C48.691 528.427 48.4185 529.985 48.4185 532.091ZM51.5 538.305C52.4782 538.305 53.2399 537.8 53.7849 536.788C54.3299 535.763 54.6024 534.197 54.6024 532.091C54.6024 530.304 54.4277 528.919 54.0784 527.935L49.4247 537.225C49.9278 537.945 50.6196 538.305 51.5 538.305Z" fill="url(#paint36_linear_122_130)" fill-opacity="0.6"/>
<path d="M52.7577 561.89H55.8392V562.992H47.8525V561.89H51.4162V550.21L48.0202 552.226L47.4333 551.291L51.6258 548.714H52.7577V561.89Z" fill="url(#paint37_linear_122_130)" fill-opacity="0.6"/>
<path d="M52.7577 585.641H55.8392V586.743H47.8525V585.641H51.4162V573.962L48.0202 575.977L47.4333 575.042L51.6258 572.465H52.7577V585.641Z" fill="url(#paint38_linear_122_130)" fill-opacity="0.6"/>
<path d="M51.5 596.008C52.9953 596.008 54.1273 596.639 54.8959 597.9C55.6785 599.147 56.0698 600.962 56.0698 603.345C56.0698 605.728 55.6785 607.549 54.8959 608.81C54.1273 610.071 52.9953 610.701 51.5 610.701C50.0187 610.701 48.8867 610.071 48.1041 608.81C47.3215 607.549 46.9302 605.728 46.9302 603.345C46.9302 600.975 47.3215 599.16 48.1041 597.9C48.8867 596.639 50.0187 596.008 51.5 596.008ZM48.4185 603.345C48.4185 605.035 48.5723 606.358 48.8797 607.314L53.5334 598.107C53.0442 597.456 52.3664 597.131 51.5 597.131C50.5357 597.131 49.7811 597.643 49.2361 598.669C48.691 599.68 48.4185 601.239 48.4185 603.345ZM51.5 609.558C52.4782 609.558 53.2399 609.053 53.7849 608.041C54.3299 607.016 54.6024 605.451 54.6024 603.345C54.6024 601.557 54.4277 600.172 54.0784 599.188L49.4247 608.478C49.9278 609.198 50.6196 609.558 51.5 609.558Z" fill="url(#paint39_linear_122_130)" fill-opacity="0.6"/>
<path d="M52.7577 633.143H55.8392V634.245H47.8525V633.143H51.4162V621.464L48.0202 623.48L47.4333 622.544L51.6258 619.967H52.7577V633.143Z" fill="url(#paint40_linear_122_130)" fill-opacity="0.6"/>
<path d="M51.5 643.511C52.9953 643.511 54.1273 644.141 54.8959 645.402C55.6785 646.649 56.0698 648.464 56.0698 650.847C56.0698 653.23 55.6785 655.052 54.8959 656.312C54.1273 657.573 52.9953 658.204 51.5 658.204C50.0187 658.204 48.8867 657.573 48.1041 656.312C47.3215 655.052 46.9302 653.23 46.9302 650.847C46.9302 648.478 47.3215 646.663 48.1041 645.402C48.8867 644.141 50.0187 643.511 51.5 643.511ZM48.4185 650.847C48.4185 652.537 48.5723 653.86 48.8797 654.816L53.5334 645.61C53.0442 644.958 52.3664 644.633 51.5 644.633C50.5357 644.633 49.7811 645.145 49.2361 646.171C48.691 647.182 48.4185 648.741 48.4185 650.847ZM51.5 657.061C52.4782 657.061 53.2399 656.555 53.7849 655.543C54.3299 654.518 54.6024 652.953 54.6024 650.847C54.6024 649.059 54.4277 647.674 54.0784 646.69L49.4247 655.98C49.9278 656.7 50.6196 657.061 51.5 657.061Z" fill="url(#paint41_linear_122_130)" fill-opacity="0.6"/>
<path d="M90.4302 429.751C91.9255 429.751 93.0575 430.381 93.8261 431.642C94.6087 432.889 95 434.704 95 437.087C95 439.47 94.6087 441.292 93.8261 442.553C93.0575 443.814 91.9255 444.444 90.4302 444.444C88.9489 444.444 87.8169 443.814 87.0343 442.553C86.2517 441.292 85.8604 439.47 85.8604 437.087C85.8604 434.718 86.2517 432.903 87.0343 431.642C87.8169 430.381 88.9489 429.751 90.4302 429.751ZM87.3487 437.087C87.3487 438.777 87.5024 440.101 87.8099 441.057L92.4636 431.85C91.9744 431.199 91.2966 430.873 90.4302 430.873C89.4659 430.873 88.7113 431.386 88.1663 432.411C87.6212 433.423 87.3487 434.981 87.3487 437.087ZM90.4302 443.301C91.4084 443.301 92.1701 442.795 92.7151 441.784C93.2601 440.759 93.5326 439.193 93.5326 437.087C93.5326 435.3 93.3579 433.914 93.0086 432.931L88.3549 442.22C88.858 442.941 89.5498 443.301 90.4302 443.301Z" fill="url(#paint42_linear_122_130)" fill-opacity="0.6"/>
<path d="M91.6879 466.886H94.7694V467.987H86.7827V466.886H90.3463V455.206L86.9504 457.222L86.3635 456.287L90.556 453.71H91.6879V466.886Z" fill="url(#paint43_linear_122_130)" fill-opacity="0.6"/>
<path d="M91.6879 490.637H94.7694V491.738H86.7827V490.637H90.3463V478.957L86.9504 480.973L86.3635 480.038L90.556 477.461H91.6879V490.637Z" fill="url(#paint44_linear_122_130)" fill-opacity="0.6"/>
<path d="M90.4302 501.004C91.9255 501.004 93.0575 501.635 93.8261 502.895C94.6087 504.142 95 505.957 95 508.34C95 510.723 94.6087 512.545 93.8261 513.806C93.0575 515.067 91.9255 515.697 90.4302 515.697C88.9489 515.697 87.8169 515.067 87.0343 513.806C86.2517 512.545 85.8604 510.723 85.8604 508.34C85.8604 505.971 86.2517 504.156 87.0343 502.895C87.8169 501.635 88.9489 501.004 90.4302 501.004ZM87.3487 508.34C87.3487 510.031 87.5024 511.354 87.8099 512.31L92.4636 503.103C91.9744 502.452 91.2966 502.126 90.4302 502.126C89.4659 502.126 88.7113 502.639 88.1663 503.664C87.6212 504.676 87.3487 506.234 87.3487 508.34ZM90.4302 514.554C91.4084 514.554 92.1701 514.049 92.7151 513.037C93.2601 512.012 93.5326 510.446 93.5326 508.34C93.5326 506.553 93.3579 505.168 93.0086 504.184L88.3549 513.474C88.858 514.194 89.5498 514.554 90.4302 514.554Z" fill="url(#paint45_linear_122_130)" fill-opacity="0.6"/>
<path d="M90.4302 524.755C91.9255 524.755 93.0575 525.386 93.8261 526.646C94.6087 527.893 95 529.708 95 532.091C95 534.474 94.6087 536.296 93.8261 537.557C93.0575 538.818 91.9255 539.448 90.4302 539.448C88.9489 539.448 87.8169 538.818 87.0343 537.557C86.2517 536.296 85.8604 534.474 85.8604 532.091C85.8604 529.722 86.2517 527.907 87.0343 526.646C87.8169 525.386 88.9489 524.755 90.4302 524.755ZM87.3487 532.091C87.3487 533.782 87.5024 535.105 87.8099 536.061L92.4636 526.854C91.9744 526.203 91.2966 525.878 90.4302 525.878C89.4659 525.878 88.7113 526.39 88.1663 527.415C87.6212 528.427 87.3487 529.985 87.3487 532.091ZM90.4302 538.305C91.4084 538.305 92.1701 537.8 92.7151 536.788C93.2601 535.763 93.5326 534.197 93.5326 532.091C93.5326 530.304 93.3579 528.919 93.0086 527.935L88.3549 537.225C88.858 537.945 89.5498 538.305 90.4302 538.305Z" fill="url(#paint46_linear_122_130)" fill-opacity="0.6"/>
<g opacity="0.6">
<path d="M918.93 106C920.356 106 921.436 106.605 922.17 107.815C922.916 109.011 923.29 110.753 923.29 113.04C923.29 115.327 922.916 117.075 922.17 118.285C921.436 119.495 920.356 120.1 918.93 120.1C917.517 120.1 916.437 119.495 915.69 118.285C914.943 117.075 914.57 115.327 914.57 113.04C914.57 110.767 914.943 109.025 915.69 107.815C916.437 106.605 917.517 106 918.93 106ZM915.99 113.04C915.99 114.662 916.137 115.932 916.43 116.849L920.87 108.014C920.403 107.389 919.756 107.077 918.93 107.077C918.01 107.077 917.29 107.569 916.77 108.553C916.25 109.523 915.99 111.019 915.99 113.04ZM918.93 119.003C919.863 119.003 920.59 118.518 921.11 117.547C921.63 116.564 921.89 115.061 921.89 113.04C921.89 111.325 921.723 109.995 921.39 109.051L916.95 117.966C917.43 118.658 918.09 119.003 918.93 119.003Z" fill="url(#paint47_linear_122_130)"/>
<path d="M920.13 141.637H923.07V142.694H915.45V141.637H918.85V130.428L915.61 132.363L915.05 131.465L919.05 128.992H920.13V141.637Z" fill="url(#paint48_linear_122_130)"/>
<path d="M918.93 151.586C920.356 151.586 921.436 152.191 922.17 153.4C922.916 154.597 923.29 156.339 923.29 158.626C923.29 160.913 922.916 162.661 922.17 163.871C921.436 165.081 920.356 165.686 918.93 165.686C917.517 165.686 916.437 165.081 915.69 163.871C914.943 162.661 914.57 160.913 914.57 158.626C914.57 156.352 914.943 154.61 915.69 153.4C916.437 152.191 917.517 151.586 918.93 151.586ZM915.99 158.626C915.99 160.248 916.137 161.518 916.43 162.435L920.87 153.6C920.403 152.975 919.756 152.663 918.93 152.663C918.01 152.663 917.29 153.155 916.77 154.138C916.25 155.109 915.99 156.605 915.99 158.626ZM918.93 164.589C919.863 164.589 920.59 164.104 921.11 163.133C921.63 162.149 921.89 160.647 921.89 158.626C921.89 156.911 921.723 155.581 921.39 154.637L916.95 163.552C917.43 164.243 918.09 164.589 918.93 164.589Z" fill="url(#paint49_linear_122_130)"/>
<path d="M920.13 187.222H923.07V188.279H915.45V187.222H918.85V176.014L915.61 177.948L915.05 177.051L919.05 174.578H920.13V187.222Z" fill="url(#paint50_linear_122_130)"/>
<path d="M920.13 210.015H923.07V211.072H915.45V210.015H918.85V198.807L915.61 200.741L915.05 199.844L919.05 197.371H920.13V210.015Z" fill="url(#paint51_linear_122_130)"/>
<path d="M918.93 219.964C920.356 219.964 921.436 220.569 922.17 221.779C922.916 222.976 923.29 224.717 923.29 227.004C923.29 229.291 922.916 231.039 922.17 232.249C921.436 233.459 920.356 234.064 918.93 234.064C917.517 234.064 916.437 233.459 915.69 232.249C914.943 231.039 914.57 229.291 914.57 227.004C914.57 224.731 914.943 222.989 915.69 221.779C916.437 220.569 917.517 219.964 918.93 219.964ZM915.99 227.004C915.99 228.626 916.137 229.896 916.43 230.813L920.87 221.978C920.403 221.353 919.756 221.041 918.93 221.041C918.01 221.041 917.29 221.533 916.77 222.517C916.25 223.487 915.99 224.983 915.99 227.004ZM918.93 232.967C919.863 232.967 920.59 232.482 921.11 231.511C921.63 230.528 921.89 229.025 921.89 227.004C921.89 225.289 921.723 223.959 921.39 223.015L916.95 231.93C917.43 232.622 918.09 232.967 918.93 232.967Z" fill="url(#paint52_linear_122_130)"/>
<path d="M920.13 255.601H923.07V256.658H915.45V255.601H918.85V244.392L915.61 246.327L915.05 245.429L919.05 242.956H920.13V255.601Z" fill="url(#paint53_linear_122_130)"/>
<path d="M918.93 265.55C920.356 265.55 921.436 266.155 922.17 267.365C922.916 268.561 923.29 270.303 923.29 272.59C923.29 274.877 922.916 276.625 922.17 277.835C921.436 279.045 920.356 279.65 918.93 279.65C917.517 279.65 916.437 279.045 915.69 277.835C914.943 276.625 914.57 274.877 914.57 272.59C914.57 270.316 914.943 268.574 915.69 267.365C916.437 266.155 917.517 265.55 918.93 265.55ZM915.99 272.59C915.99 274.212 916.137 275.482 916.43 276.399L920.87 267.564C920.403 266.939 919.756 266.627 918.93 266.627C918.01 266.627 917.29 267.119 916.77 268.102C916.25 269.073 915.99 270.569 915.99 272.59ZM918.93 278.553C919.863 278.553 920.59 278.068 921.11 277.097C921.63 276.113 921.89 274.611 921.89 272.59C921.89 270.875 921.723 269.545 921.39 268.601L916.95 277.516C917.43 278.207 918.09 278.553 918.93 278.553Z" fill="url(#paint54_linear_122_130)"/>
<path d="M918.93 288.342C920.356 288.342 921.436 288.947 922.17 290.157C922.916 291.354 923.29 293.096 923.29 295.383C923.29 297.669 922.916 299.418 922.17 300.628C921.436 301.838 920.356 302.443 918.93 302.443C917.517 302.443 916.437 301.838 915.69 300.628C914.943 299.418 914.57 297.669 914.57 295.383C914.57 293.109 914.943 291.367 915.69 290.157C916.437 288.947 917.517 288.342 918.93 288.342ZM915.99 295.383C915.99 297.005 916.137 298.274 916.43 299.192L920.87 290.357C920.403 289.732 919.756 289.419 918.93 289.419C918.01 289.419 917.29 289.911 916.77 290.895C916.25 291.866 915.99 293.362 915.99 295.383ZM918.93 301.346C919.863 301.346 920.59 300.86 921.11 299.89C921.63 298.906 921.89 297.404 921.89 295.383C921.89 293.667 921.723 292.338 921.39 291.394L916.95 300.309C917.43 301 918.09 301.346 918.93 301.346Z" fill="url(#paint55_linear_122_130)"/>
<path d="M920.13 323.979H923.07V325.036H915.45V323.979H918.85V312.771L915.61 314.705L915.05 313.808L919.05 311.335H920.13V323.979Z" fill="url(#paint56_linear_122_130)"/>
<path d="M918.93 333.928C920.356 333.928 921.436 334.533 922.17 335.743C922.916 336.94 923.29 338.681 923.29 340.968C923.29 343.255 922.916 345.003 922.17 346.213C921.436 347.423 920.356 348.028 918.93 348.028C917.517 348.028 916.437 347.423 915.69 346.213C914.943 345.003 914.57 343.255 914.57 340.968C914.57 338.695 914.943 336.953 915.69 335.743C916.437 334.533 917.517 333.928 918.93 333.928ZM915.99 340.968C915.99 342.59 916.137 343.86 916.43 344.777L920.87 335.942C920.403 335.317 919.756 335.005 918.93 335.005C918.01 335.005 917.29 335.497 916.77 336.481C916.25 337.451 915.99 338.947 915.99 340.968ZM918.93 346.931C919.863 346.931 920.59 346.446 921.11 345.475C921.63 344.492 921.89 342.989 921.89 340.968C921.89 339.253 921.723 337.923 921.39 336.979L916.95 345.894C917.43 346.586 918.09 346.931 918.93 346.931Z" fill="url(#paint57_linear_122_130)"/>
<path d="M920.13 369.565H923.07V370.622H915.45V369.565H918.85V358.356L915.61 360.291L915.05 359.393L919.05 356.92H920.13V369.565Z" fill="url(#paint58_linear_122_130)"/>
<path d="M920.13 392.357H923.07V393.414H915.45V392.357H918.85V381.149L915.61 383.084L915.05 382.186L919.05 379.713H920.13V392.357Z" fill="url(#paint59_linear_122_130)"/>
<path d="M956.07 151.586C957.497 151.586 958.577 152.191 959.31 153.4C960.057 154.597 960.43 156.339 960.43 158.626C960.43 160.913 960.057 162.661 959.31 163.871C958.577 165.081 957.497 165.686 956.07 165.686C954.657 165.686 953.577 165.081 952.83 163.871C952.084 162.661 951.71 160.913 951.71 158.626C951.71 156.352 952.084 154.61 952.83 153.4C953.577 152.191 954.657 151.586 956.07 151.586ZM953.13 158.626C953.13 160.248 953.277 161.518 953.57 162.435L958.01 153.6C957.543 152.975 956.897 152.663 956.07 152.663C955.15 152.663 954.43 153.155 953.91 154.138C953.39 155.109 953.13 156.605 953.13 158.626ZM956.07 164.589C957.003 164.589 957.73 164.104 958.25 163.133C958.77 162.149 959.03 160.647 959.03 158.626C959.03 156.911 958.863 155.581 958.53 154.637L954.09 163.552C954.57 164.243 955.23 164.589 956.07 164.589Z" fill="url(#paint60_linear_122_130)"/>
<path d="M957.27 187.222H960.21V188.279H952.59V187.222H955.99V176.014L952.75 177.948L952.19 177.051L956.19 174.578H957.27V187.222Z" fill="url(#paint61_linear_122_130)"/>
<path d="M956.07 197.171C957.497 197.171 958.577 197.776 959.31 198.986C960.057 200.183 960.43 201.924 960.43 204.211C960.43 206.498 960.057 208.247 959.31 209.457C958.577 210.666 957.497 211.271 956.07 211.271C954.657 211.271 953.577 210.666 952.83 209.457C952.084 208.247 951.71 206.498 951.71 204.211C951.71 201.938 952.084 200.196 952.83 198.986C953.577 197.776 954.657 197.171 956.07 197.171ZM953.13 204.211C953.13 205.833 953.277 207.103 953.57 208.021L958.01 199.186C957.543 198.561 956.897 198.248 956.07 198.248C955.15 198.248 954.43 198.74 953.91 199.724C953.39 200.695 953.13 202.19 953.13 204.211ZM956.07 210.174C957.003 210.174 957.73 209.689 958.25 208.719C958.77 207.735 959.03 206.232 959.03 204.211C959.03 202.496 958.863 201.167 958.53 200.223L954.09 209.137C954.57 209.829 955.23 210.174 956.07 210.174Z" fill="url(#paint62_linear_122_130)"/>
<path d="M956.07 219.964C957.497 219.964 958.577 220.569 959.31 221.779C960.057 222.976 960.43 224.717 960.43 227.004C960.43 229.291 960.057 231.039 959.31 232.249C958.577 233.459 957.497 234.064 956.07 234.064C954.657 234.064 953.577 233.459 952.83 232.249C952.084 231.039 951.71 229.291 951.71 227.004C951.71 224.731 952.084 222.989 952.83 221.779C953.577 220.569 954.657 219.964 956.07 219.964ZM953.13 227.004C953.13 228.626 953.277 229.896 953.57 230.813L958.01 221.978C957.543 221.353 956.897 221.041 956.07 221.041C955.15 221.041 954.43 221.533 953.91 222.517C953.39 223.487 953.13 224.983 953.13 227.004ZM956.07 232.967C957.003 232.967 957.73 232.482 958.25 231.511C958.77 230.528 959.03 229.025 959.03 227.004C959.03 225.289 958.863 223.959 958.53 223.015L954.09 231.93C954.57 232.622 955.23 232.967 956.07 232.967Z" fill="url(#paint63_linear_122_130)"/>
<path d="M957.27 255.601H960.21V256.658H952.59V255.601H955.99V244.392L952.75 246.327L952.19 245.429L956.19 242.956H957.27V255.601Z" fill="url(#paint64_linear_122_130)"/>
<path d="M956.07 265.55C957.497 265.55 958.577 266.155 959.31 267.365C960.057 268.561 960.43 270.303 960.43 272.59C960.43 274.877 960.057 276.625 959.31 277.835C958.577 279.045 957.497 279.65 956.07 279.65C954.657 279.65 953.577 279.045 952.83 277.835C952.084 276.625 951.71 274.877 951.71 272.59C951.71 270.316 952.084 268.574 952.83 267.365C953.577 266.155 954.657 265.55 956.07 265.55ZM953.13 272.59C953.13 274.212 953.277 275.482 953.57 276.399L958.01 267.564C957.543 266.939 956.897 266.627 956.07 266.627C955.15 266.627 954.43 267.119 953.91 268.102C953.39 269.073 953.13 270.569 953.13 272.59ZM956.07 278.553C957.003 278.553 957.73 278.068 958.25 277.097C958.77 276.113 959.03 274.611 959.03 272.59C959.03 270.875 958.863 269.545 958.53 268.601L954.09 277.516C954.57 278.207 955.23 278.553 956.07 278.553Z" fill="url(#paint65_linear_122_130)"/>
<path d="M957.27 301.186H960.21V302.243H952.59V301.186H955.99V289.978L952.75 291.912L952.19 291.015L956.19 288.542H957.27V301.186Z" fill="url(#paint66_linear_122_130)"/>
<path d="M956.07 311.135C957.497 311.135 958.577 311.74 959.31 312.95C960.057 314.147 960.43 315.888 960.43 318.175C960.43 320.462 960.057 322.211 959.31 323.421C958.577 324.63 957.497 325.235 956.07 325.235C954.657 325.235 953.577 324.63 952.83 323.421C952.084 322.211 951.71 320.462 951.71 318.175C951.71 315.902 952.084 314.16 952.83 312.95C953.577 311.74 954.657 311.135 956.07 311.135ZM953.13 318.175C953.13 319.797 953.277 321.067 953.57 321.985L958.01 313.15C957.543 312.525 956.897 312.212 956.07 312.212C955.15 312.212 954.43 312.704 953.91 313.688C953.39 314.659 953.13 316.154 953.13 318.175ZM956.07 324.139C957.003 324.139 957.73 323.653 958.25 322.683C958.77 321.699 959.03 320.196 959.03 318.175C959.03 316.46 958.863 315.131 958.53 314.187L954.09 323.101C954.57 323.793 955.23 324.139 956.07 324.139Z" fill="url(#paint67_linear_122_130)"/>
<path d="M956.07 333.928C957.497 333.928 958.577 334.533 959.31 335.743C960.057 336.94 960.43 338.681 960.43 340.968C960.43 343.255 960.057 345.003 959.31 346.213C958.577 347.423 957.497 348.028 956.07 348.028C954.657 348.028 953.577 347.423 952.83 346.213C952.084 345.003 951.71 343.255 951.71 340.968C951.71 338.695 952.084 336.953 952.83 335.743C953.577 334.533 954.657 333.928 956.07 333.928ZM953.13 340.968C953.13 342.59 953.277 343.86 953.57 344.777L958.01 335.942C957.543 335.317 956.897 335.005 956.07 335.005C955.15 335.005 954.43 335.497 953.91 336.481C953.39 337.451 953.13 338.947 953.13 340.968ZM956.07 346.931C957.003 346.931 957.73 346.446 958.25 345.475C958.77 344.492 959.03 342.989 959.03 340.968C959.03 339.253 958.863 337.923 958.53 336.979L954.09 345.894C954.57 346.586 955.23 346.931 956.07 346.931Z" fill="url(#paint68_linear_122_130)"/>
<path d="M957.27 369.565H960.21V370.622H952.59V369.565H955.99V358.356L952.75 360.291L952.19 359.393L956.19 356.92H957.27V369.565Z" fill="url(#paint69_linear_122_130)"/>
<path d="M956.07 379.514C957.497 379.514 958.577 380.119 959.31 381.329C960.057 382.525 960.43 384.267 960.43 386.554C960.43 388.841 960.057 390.589 959.31 391.799C958.577 393.009 957.497 393.614 956.07 393.614C954.657 393.614 953.577 393.009 952.83 391.799C952.084 390.589 951.71 388.841 951.71 386.554C951.71 384.28 952.084 382.538 952.83 381.329C953.577 380.119 954.657 379.514 956.07 379.514ZM953.13 386.554C953.13 388.176 953.277 389.446 953.57 390.363L958.01 381.528C957.543 380.903 956.897 380.591 956.07 380.591C955.15 380.591 954.43 381.083 953.91 382.066C953.39 383.037 953.13 384.533 953.13 386.554ZM956.07 392.517C957.003 392.517 957.73 392.032 958.25 391.061C958.77 390.077 959.03 388.575 959.03 386.554C959.03 384.839 958.863 383.509 958.53 382.565L954.09 391.48C954.57 392.171 955.23 392.517 956.07 392.517Z" fill="url(#paint70_linear_122_130)"/>
<path d="M957.27 415.15H960.21V416.207H952.59V415.15H955.99V403.942L952.75 405.876L952.19 404.979L956.19 402.506H957.27V415.15Z" fill="url(#paint71_linear_122_130)"/>
<path d="M957.27 437.943H960.21V439H952.59V437.943H955.99V426.735L952.75 428.669L952.19 427.772L956.19 425.299H957.27V437.943Z" fill="url(#paint72_linear_122_130)"/>
<path d="M900.36 174.378C901.786 174.378 902.866 174.983 903.599 176.193C904.346 177.39 904.719 179.132 904.719 181.419C904.719 183.705 904.346 185.454 903.599 186.664C902.866 187.874 901.786 188.479 900.36 188.479C898.946 188.479 897.867 187.874 897.12 186.664C896.373 185.454 896 183.705 896 181.419C896 179.145 896.373 177.403 897.12 176.193C897.867 174.983 898.946 174.378 900.36 174.378ZM897.42 181.419C897.42 183.041 897.567 184.31 897.86 185.228L902.3 176.393C901.833 175.768 901.186 175.455 900.36 175.455C899.44 175.455 898.72 175.947 898.2 176.931C897.68 177.902 897.42 179.398 897.42 181.419ZM900.36 187.382C901.293 187.382 902.02 186.896 902.54 185.926C903.06 184.942 903.319 183.44 903.319 181.419C903.319 179.703 903.153 178.374 902.82 177.43L898.38 186.345C898.86 187.036 899.52 187.382 900.36 187.382Z" fill="url(#paint73_linear_122_130)"/>
<path d="M900.36 197.171C901.786 197.171 902.866 197.776 903.599 198.986C904.346 200.183 904.719 201.924 904.719 204.211C904.719 206.498 904.346 208.247 903.599 209.457C902.866 210.666 901.786 211.271 900.36 211.271C898.946 211.271 897.867 210.666 897.12 209.457C896.373 208.247 896 206.498 896 204.211C896 201.938 896.373 200.196 897.12 198.986C897.867 197.776 898.946 197.171 900.36 197.171ZM897.42 204.211C897.42 205.833 897.567 207.103 897.86 208.021L902.3 199.186C901.833 198.561 901.186 198.248 900.36 198.248C899.44 198.248 898.72 198.74 898.2 199.724C897.68 200.695 897.42 202.19 897.42 204.211ZM900.36 210.174C901.293 210.174 902.02 209.689 902.54 208.719C903.06 207.735 903.319 206.232 903.319 204.211C903.319 202.496 903.153 201.167 902.82 200.223L898.38 209.137C898.86 209.829 899.52 210.174 900.36 210.174Z" fill="url(#paint74_linear_122_130)"/>
<path d="M901.56 232.808H904.499V233.865H896.88V232.808H900.28V221.599L897.04 223.534L896.48 222.636L900.48 220.163H901.56V232.808Z" fill="url(#paint75_linear_122_130)"/>
<path d="M900.36 242.757C901.786 242.757 902.866 243.362 903.599 244.572C904.346 245.768 904.719 247.51 904.719 249.797C904.719 252.084 904.346 253.832 903.599 255.042C902.866 256.252 901.786 256.857 900.36 256.857C898.946 256.857 897.867 256.252 897.12 255.042C896.373 253.832 896 252.084 896 249.797C896 247.523 896.373 245.782 897.12 244.572C897.867 243.362 898.946 242.757 900.36 242.757ZM897.42 249.797C897.42 251.419 897.567 252.689 897.86 253.606L902.3 244.771C901.833 244.146 901.186 243.834 900.36 243.834C899.44 243.834 898.72 244.326 898.2 245.31C897.68 246.28 897.42 247.776 897.42 249.797ZM900.36 255.76C901.293 255.76 902.02 255.275 902.54 254.304C903.06 253.32 903.319 251.818 903.319 249.797C903.319 248.082 903.153 246.752 902.82 245.808L898.38 254.723C898.86 255.414 899.52 255.76 900.36 255.76Z" fill="url(#paint76_linear_122_130)"/>
<path d="M901.56 278.393H904.499V279.45H896.88V278.393H900.28V267.185L897.04 269.12L896.48 268.222L900.48 265.749H901.56V278.393Z" fill="url(#paint77_linear_122_130)"/>
<path d="M901.56 301.186H904.499V302.243H896.88V301.186H900.28V289.978L897.04 291.912L896.48 291.015L900.48 288.542H901.56V301.186Z" fill="url(#paint78_linear_122_130)"/>
<path d="M938.7 141.637H941.64V142.694H934.02V141.637H937.42V130.428L934.18 132.363L933.62 131.465L937.62 128.992H938.7V141.637Z" fill="url(#paint79_linear_122_130)"/>
<path d="M937.5 151.586C938.927 151.586 940.006 152.191 940.74 153.4C941.486 154.597 941.86 156.339 941.86 158.626C941.86 160.913 941.486 162.661 940.74 163.871C940.006 165.081 938.927 165.686 937.5 165.686C936.087 165.686 935.007 165.081 934.26 163.871C933.514 162.661 933.14 160.913 933.14 158.626C933.14 156.352 933.514 154.61 934.26 153.4C935.007 152.191 936.087 151.586 937.5 151.586ZM934.56 158.626C934.56 160.248 934.707 161.518 935 162.435L939.44 153.6C938.973 152.975 938.327 152.663 937.5 152.663C936.58 152.663 935.86 153.155 935.34 154.138C934.82 155.109 934.56 156.605 934.56 158.626ZM937.5 164.589C938.433 164.589 939.16 164.104 939.68 163.133C940.2 162.149 940.46 160.647 940.46 158.626C940.46 156.911 940.293 155.581 939.96 154.637L935.52 163.552C936 164.243 936.66 164.589 937.5 164.589Z" fill="url(#paint80_linear_122_130)"/>
<path d="M938.7 187.222H941.64V188.279H934.02V187.222H937.42V176.014L934.18 177.948L933.62 177.051L937.62 174.578H938.7V187.222Z" fill="url(#paint81_linear_122_130)"/>
<path d="M938.7 210.015H941.64V211.072H934.02V210.015H937.42V198.807L934.18 200.741L933.62 199.844L937.62 197.371H938.7V210.015Z" fill="url(#paint82_linear_122_130)"/>
<path d="M937.5 219.964C938.927 219.964 940.006 220.569 940.74 221.779C941.486 222.976 941.86 224.717 941.86 227.004C941.86 229.291 941.486 231.039 940.74 232.249C940.006 233.459 938.927 234.064 937.5 234.064C936.087 234.064 935.007 233.459 934.26 232.249C933.514 231.039 933.14 229.291 933.14 227.004C933.14 224.731 933.514 222.989 934.26 221.779C935.007 220.569 936.087 219.964 937.5 219.964ZM934.56 227.004C934.56 228.626 934.707 229.896 935 230.813L939.44 221.978C938.973 221.353 938.327 221.041 937.5 221.041C936.58 221.041 935.86 221.533 935.34 222.517C934.82 223.487 934.56 224.983 934.56 227.004ZM937.5 232.967C938.433 232.967 939.16 232.482 939.68 231.511C940.2 230.528 940.46 229.025 940.46 227.004C940.46 225.289 940.293 223.959 939.96 223.015L935.52 231.93C936 232.622 936.66 232.967 937.5 232.967Z" fill="url(#paint83_linear_122_130)"/>
<path d="M938.7 255.601H941.64V256.658H934.02V255.601H937.42V244.392L934.18 246.327L933.62 245.429L937.62 242.956H938.7V255.601Z" fill="url(#paint84_linear_122_130)"/>
<path d="M938.7 278.393H941.64V279.45H934.02V278.393H937.42V267.185L934.18 269.12L933.62 268.222L937.62 265.749H938.7V278.393Z" fill="url(#paint85_linear_122_130)"/>
<path d="M937.5 288.342C938.927 288.342 940.006 288.947 940.74 290.157C941.486 291.354 941.86 293.096 941.86 295.383C941.86 297.669 941.486 299.418 940.74 300.628C940.006 301.838 938.927 302.443 937.5 302.443C936.087 302.443 935.007 301.838 934.26 300.628C933.514 299.418 933.14 297.669 933.14 295.383C933.14 293.109 933.514 291.367 934.26 290.157C935.007 288.947 936.087 288.342 937.5 288.342ZM934.56 295.383C934.56 297.005 934.707 298.274 935 299.192L939.44 290.357C938.973 289.732 938.327 289.419 937.5 289.419C936.58 289.419 935.86 289.911 935.34 290.895C934.82 291.866 934.56 293.362 934.56 295.383ZM937.5 301.346C938.433 301.346 939.16 300.86 939.68 299.89C940.2 298.906 940.46 297.404 940.46 295.383C940.46 293.667 940.293 292.338 939.96 291.394L935.52 300.309C936 301 936.66 301.346 937.5 301.346Z" fill="url(#paint86_linear_122_130)"/>
<path d="M938.7 323.979H941.64V325.036H934.02V323.979H937.42V312.771L934.18 314.705L933.62 313.808L937.62 311.335H938.7V323.979Z" fill="url(#paint87_linear_122_130)"/>
<path d="M937.5 333.928C938.927 333.928 940.006 334.533 940.74 335.743C941.486 336.94 941.86 338.681 941.86 340.968C941.86 343.255 941.486 345.003 940.74 346.213C940.006 347.423 938.927 348.028 937.5 348.028C936.087 348.028 935.007 347.423 934.26 346.213C933.514 345.003 933.14 343.255 933.14 340.968C933.14 338.695 933.514 336.953 934.26 335.743C935.007 334.533 936.087 333.928 937.5 333.928ZM934.56 340.968C934.56 342.59 934.707 343.86 935 344.777L939.44 335.942C938.973 335.317 938.327 335.005 937.5 335.005C936.58 335.005 935.86 335.497 935.34 336.481C934.82 337.451 934.56 338.947 934.56 340.968ZM937.5 346.931C938.433 346.931 939.16 346.446 939.68 345.475C940.2 344.492 940.46 342.989 940.46 340.968C940.46 339.253 940.293 337.923 939.96 336.979L935.52 345.894C936 346.586 936.66 346.931 937.5 346.931Z" fill="url(#paint88_linear_122_130)"/>
<path d="M974.64 128.793C976.067 128.793 977.147 129.398 977.88 130.608C978.627 131.804 979 133.546 979 135.833C979 138.12 978.627 139.868 977.88 141.078C977.147 142.288 976.067 142.893 974.64 142.893C973.227 142.893 972.147 142.288 971.401 141.078C970.654 139.868 970.281 138.12 970.281 135.833C970.281 133.559 970.654 131.818 971.401 130.608C972.147 129.398 973.227 128.793 974.64 128.793ZM971.7 135.833C971.7 137.455 971.847 138.725 972.14 139.642L976.58 130.807C976.114 130.182 975.467 129.87 974.64 129.87C973.72 129.87 973 130.362 972.48 131.346C971.96 132.316 971.7 133.812 971.7 135.833ZM974.64 141.796C975.574 141.796 976.3 141.311 976.82 140.34C977.34 139.356 977.6 137.854 977.6 135.833C977.6 134.118 977.433 132.788 977.1 131.844L972.66 140.759C973.14 141.45 973.8 141.796 974.64 141.796Z" fill="url(#paint89_linear_122_130)"/>
<path d="M975.84 164.429H978.78V165.486H971.161V164.429H974.56V153.221L971.321 155.156L970.761 154.258L974.76 151.785H975.84V164.429Z" fill="url(#paint90_linear_122_130)"/>
<path d="M975.84 187.222H978.78V188.279H971.161V187.222H974.56V176.014L971.321 177.948L970.761 177.051L974.76 174.578H975.84V187.222Z" fill="url(#paint91_linear_122_130)"/>
<path d="M974.64 197.171C976.067 197.171 977.147 197.776 977.88 198.986C978.627 200.183 979 201.924 979 204.211C979 206.498 978.627 208.247 977.88 209.457C977.147 210.666 976.067 211.271 974.64 211.271C973.227 211.271 972.147 210.666 971.401 209.457C970.654 208.247 970.281 206.498 970.281 204.211C970.281 201.938 970.654 200.196 971.401 198.986C972.147 197.776 973.227 197.171 974.64 197.171ZM971.7 204.211C971.7 205.833 971.847 207.103 972.14 208.021L976.58 199.186C976.114 198.561 975.467 198.248 974.64 198.248C973.72 198.248 973 198.74 972.48 199.724C971.96 200.695 971.7 202.19 971.7 204.211ZM974.64 210.174C975.574 210.174 976.3 209.689 976.82 208.719C977.34 207.735 977.6 206.232 977.6 204.211C977.6 202.496 977.433 201.167 977.1 200.223L972.66 209.137C973.14 209.829 973.8 210.174 974.64 210.174Z" fill="url(#paint92_linear_122_130)"/>
<path d="M974.64 219.964C976.067 219.964 977.147 220.569 977.88 221.779C978.627 222.976 979 224.717 979 227.004C979 229.291 978.627 231.039 977.88 232.249C977.147 233.459 976.067 234.064 974.64 234.064C973.227 234.064 972.147 233.459 971.401 232.249C970.654 231.039 970.281 229.291 970.281 227.004C970.281 224.731 970.654 222.989 971.401 221.779C972.147 220.569 973.227 219.964 974.64 219.964ZM971.7 227.004C971.7 228.626 971.847 229.896 972.14 230.813L976.58 221.978C976.114 221.353 975.467 221.041 974.64 221.041C973.72 221.041 973 221.533 972.48 222.517C971.96 223.487 971.7 224.983 971.7 227.004ZM974.64 232.967C975.574 232.967 976.3 232.482 976.82 231.511C977.34 230.528 977.6 229.025 977.6 227.004C977.6 225.289 977.433 223.959 977.1 223.015L972.66 231.93C973.14 232.622 973.8 232.967 974.64 232.967Z" fill="url(#paint93_linear_122_130)"/>
</g>
</g>
<defs>
<filter id="filter0_f_122_130" x="-559.19" y="-580.19" width="2141.38" height="1500.38" filterUnits="userSpaceOnUse" color-interpolation-filters="sRGB">
<feFlood flood-opacity="0" result="BackgroundImageFix"/>
<feBlend mode="normal" in="SourceGraphic" in2="BackgroundImageFix" result="shape"/>
<feGaussianBlur stdDeviation="200.095" result="effect1_foregroundBlur_122_130"/>
</filter>
<linearGradient id="paint0_linear_122_130" x1="51.5" y1="406" x2="51.5" y2="717.381" gradientUnits="userSpaceOnUse">
<stop stop-color="#F7DD43"/>
<stop offset="1" stop-color="#F7DD43" stop-opacity="0"/>
</linearGradient>
<linearGradient id="paint1_linear_122_130" x1="51.5" y1="406" x2="51.5" y2="717.381" gradientUnits="userSpaceOnUse">
<stop stop-color="#F7DD43"/>
<stop offset="1" stop-color="#F7DD43" stop-opacity="0"/>
</linearGradient>
<linearGradient id="paint2_linear_122_130" x1="51.5" y1="406" x2="51.5" y2="717.381" gradientUnits="userSpaceOnUse">
<stop stop-color="#F7DD43"/>
<stop offset="1" stop-color="#F7DD43" stop-opacity="0"/>
</linearGradient>
<linearGradient id="paint3_linear_122_130" x1="51.5" y1="406" x2="51.5" y2="717.381" gradientUnits="userSpaceOnUse">
<stop stop-color="#F7DD43"/>
<stop offset="1" stop-color="#F7DD43" stop-opacity="0"/>
</linearGradient>
<linearGradient id="paint4_linear_122_130" x1="51.5" y1="406" x2="51.5" y2="717.381" gradientUnits="userSpaceOnUse">
<stop stop-color="#F7DD43"/>
<stop offset="1" stop-color="#F7DD43" stop-opacity="0"/>
</linearGradient>
<linearGradient id="paint5_linear_122_130" x1="51.5" y1="406" x2="51.5" y2="717.381" gradientUnits="userSpaceOnUse">
<stop stop-color="#F7DD43"/>
<stop offset="1" stop-color="#F7DD43" stop-opacity="0"/>
</linearGradient>
<linearGradient id="paint6_linear_122_130" x1="51.5" y1="406" x2="51.5" y2="717.381" gradientUnits="userSpaceOnUse">
<stop stop-color="#F7DD43"/>
<stop offset="1" stop-color="#F7DD43" stop-opacity="0"/>
</linearGradient>
<linearGradient id="paint7_linear_122_130" x1="51.5" y1="406" x2="51.5" y2="717.381" gradientUnits="userSpaceOnUse">
<stop stop-color="#F7DD43"/>
<stop offset="1" stop-color="#F7DD43" stop-opacity="0"/>
</linearGradient>
<linearGradient id="paint8_linear_122_130" x1="51.5" y1="406" x2="51.5" y2="717.381" gradientUnits="userSpaceOnUse">
<stop stop-color="#F7DD43"/>
<stop offset="1" stop-color="#F7DD43" stop-opacity="0"/>
</linearGradient>
<linearGradient id="paint9_linear_122_130" x1="51.5" y1="406" x2="51.5" y2="717.381" gradientUnits="userSpaceOnUse">
<stop stop-color="#F7DD43"/>
<stop offset="1" stop-color="#F7DD43" stop-opacity="0"/>
</linearGradient>
<linearGradient id="paint10_linear_122_130" x1="51.5" y1="406" x2="51.5" y2="717.381" gradientUnits="userSpaceOnUse">
<stop stop-color="#F7DD43"/>
<stop offset="1" stop-color="#F7DD43" stop-opacity="0"/>
</linearGradient>
<linearGradient id="paint11_linear_122_130" x1="51.5" y1="406" x2="51.5" y2="717.381" gradientUnits="userSpaceOnUse">
<stop stop-color="#F7DD43"/>
<stop offset="1" stop-color="#F7DD43" stop-opacity="0"/>
</linearGradient>
<linearGradient id="paint12_linear_122_130" x1="51.5" y1="406" x2="51.5" y2="717.381" gradientUnits="userSpaceOnUse">
<stop stop-color="#F7DD43"/>
<stop offset="1" stop-color="#F7DD43" stop-opacity="0"/>
</linearGradient>
<linearGradient id="paint13_linear_122_130" x1="51.5" y1="406" x2="51.5" y2="717.381" gradientUnits="userSpaceOnUse">
<stop stop-color="#F7DD43"/>
<stop offset="1" stop-color="#F7DD43" stop-opacity="0"/>
</linearGradient>
<linearGradient id="paint14_linear_122_130" x1="51.5" y1="406" x2="51.5" y2="717.381" gradientUnits="userSpaceOnUse">
<stop stop-color="#F7DD43"/>
<stop offset="1" stop-color="#F7DD43" stop-opacity="0"/>
</linearGradient>
<linearGradient id="paint15_linear_122_130" x1="51.5" y1="406" x2="51.5" y2="717.381" gradientUnits="userSpaceOnUse">
<stop stop-color="#F7DD43"/>
<stop offset="1" stop-color="#F7DD43" stop-opacity="0"/>
</linearGradient>
<linearGradient id="paint16_linear_122_130" x1="51.5" y1="406" x2="51.5" y2="717.381" gradientUnits="userSpaceOnUse">
<stop stop-color="#F7DD43"/>
<stop offset="1" stop-color="#F7DD43" stop-opacity="0"/>
</linearGradient>
<linearGradient id="paint17_linear_122_130" x1="51.5" y1="406" x2="51.5" y2="717.381" gradientUnits="userSpaceOnUse">
<stop stop-color="#F7DD43"/>
<stop offset="1" stop-color="#F7DD43" stop-opacity="0"/>
</linearGradient>
<linearGradient id="paint18_linear_122_130" x1="51.5" y1="406" x2="51.5" y2="717.381" gradientUnits="userSpaceOnUse">
<stop stop-color="#F7DD43"/>
<stop offset="1" stop-color="#F7DD43" stop-opacity="0"/>
</linearGradient>
<linearGradient id="paint19_linear_122_130" x1="51.5" y1="406" x2="51.5" y2="717.381" gradientUnits="userSpaceOnUse">
<stop stop-color="#F7DD43"/>
<stop offset="1" stop-color="#F7DD43" stop-opacity="0"/>
</linearGradient>
<linearGradient id="paint20_linear_122_130" x1="51.5" y1="406" x2="51.5" y2="717.381" gradientUnits="userSpaceOnUse">
<stop stop-color="#F7DD43"/>
<stop offset="1" stop-color="#F7DD43" stop-opacity="0"/>
</linearGradient>
<linearGradient id="paint21_linear_122_130" x1="51.5" y1="406" x2="51.5" y2="717.381" gradientUnits="userSpaceOnUse">
<stop stop-color="#F7DD43"/>
<stop offset="1" stop-color="#F7DD43" stop-opacity="0"/>
</linearGradient>
<linearGradient id="paint22_linear_122_130" x1="51.5" y1="406" x2="51.5" y2="717.381" gradientUnits="userSpaceOnUse">
<stop stop-color="#F7DD43"/>
<stop offset="1" stop-color="#F7DD43" stop-opacity="0"/>
</linearGradient>
<linearGradient id="paint23_linear_122_130" x1="51.5" y1="406" x2="51.5" y2="717.381" gradientUnits="userSpaceOnUse">
<stop stop-color="#F7DD43"/>
<stop offset="1" stop-color="#F7DD43" stop-opacity="0"/>
</linearGradient>
<linearGradient id="paint24_linear_122_130" x1="51.5" y1="406" x2="51.5" y2="717.381" gradientUnits="userSpaceOnUse">
<stop stop-color="#F7DD43"/>
<stop offset="1" stop-color="#F7DD43" stop-opacity="0"/>
</linearGradient>
<linearGradient id="paint25_linear_122_130" x1="51.5" y1="406" x2="51.5" y2="717.381" gradientUnits="userSpaceOnUse">
<stop stop-color="#F7DD43"/>
<stop offset="1" stop-color="#F7DD43" stop-opacity="0"/>
</linearGradient>
<linearGradient id="paint26_linear_122_130" x1="51.5" y1="406" x2="51.5" y2="717.381" gradientUnits="userSpaceOnUse">
<stop stop-color="#F7DD43"/>
<stop offset="1" stop-color="#F7DD43" stop-opacity="0"/>
</linearGradient>
<linearGradient id="paint27_linear_122_130" x1="51.5" y1="406" x2="51.5" y2="717.381" gradientUnits="userSpaceOnUse">
<stop stop-color="#F7DD43"/>
<stop offset="1" stop-color="#F7DD43" stop-opacity="0"/>
</linearGradient>
<linearGradient id="paint28_linear_122_130" x1="51.5" y1="406" x2="51.5" y2="717.381" gradientUnits="userSpaceOnUse">
<stop stop-color="#F7DD43"/>
<stop offset="1" stop-color="#F7DD43" stop-opacity="0"/>
</linearGradient>
<linearGradient id="paint29_linear_122_130" x1="51.5" y1="406" x2="51.5" y2="717.381" gradientUnits="userSpaceOnUse">
<stop stop-color="#F7DD43"/>
<stop offset="1" stop-color="#F7DD43" stop-opacity="0"/>
</linearGradient>
<linearGradient id="paint30_linear_122_130" x1="51.5" y1="406" x2="51.5" y2="717.381" gradientUnits="userSpaceOnUse">
<stop stop-color="#F7DD43"/>
<stop offset="1" stop-color="#F7DD43" stop-opacity="0"/>
</linearGradient>
<linearGradient id="paint31_linear_122_130" x1="51.5" y1="406" x2="51.5" y2="717.381" gradientUnits="userSpaceOnUse">
<stop stop-color="#F7DD43"/>
<stop offset="1" stop-color="#F7DD43" stop-opacity="0"/>
</linearGradient>
<linearGradient id="paint32_linear_122_130" x1="51.5" y1="406" x2="51.5" y2="717.381" gradientUnits="userSpaceOnUse">
<stop stop-color="#F7DD43"/>
<stop offset="1" stop-color="#F7DD43" stop-opacity="0"/>
</linearGradient>
<linearGradient id="paint33_linear_122_130" x1="51.5" y1="406" x2="51.5" y2="717.381" gradientUnits="userSpaceOnUse">
<stop stop-color="#F7DD43"/>
<stop offset="1" stop-color="#F7DD43" stop-opacity="0"/>
</linearGradient>
<linearGradient id="paint34_linear_122_130" x1="51.5" y1="406" x2="51.5" y2="717.381" gradientUnits="userSpaceOnUse">
<stop stop-color="#F7DD43"/>
<stop offset="1" stop-color="#F7DD43" stop-opacity="0"/>
</linearGradient>
<linearGradient id="paint35_linear_122_130" x1="51.5" y1="406" x2="51.5" y2="717.381" gradientUnits="userSpaceOnUse">
<stop stop-color="#F7DD43"/>
<stop offset="1" stop-color="#F7DD43" stop-opacity="0"/>
</linearGradient>
<linearGradient id="paint36_linear_122_130" x1="51.5" y1="406" x2="51.5" y2="717.381" gradientUnits="userSpaceOnUse">
<stop stop-color="#F7DD43"/>
<stop offset="1" stop-color="#F7DD43" stop-opacity="0"/>
</linearGradient>
<linearGradient id="paint37_linear_122_130" x1="51.5" y1="406" x2="51.5" y2="717.381" gradientUnits="userSpaceOnUse">
<stop stop-color="#F7DD43"/>
<stop offset="1" stop-color="#F7DD43" stop-opacity="0"/>
</linearGradient>
<linearGradient id="paint38_linear_122_130" x1="51.5" y1="406" x2="51.5" y2="717.381" gradientUnits="userSpaceOnUse">
<stop stop-color="#F7DD43"/>
<stop offset="1" stop-color="#F7DD43" stop-opacity="0"/>
</linearGradient>
<linearGradient id="paint39_linear_122_130" x1="51.5" y1="406" x2="51.5" y2="717.381" gradientUnits="userSpaceOnUse">
<stop stop-color="#F7DD43"/>
<stop offset="1" stop-color="#F7DD43" stop-opacity="0"/>
</linearGradient>
<linearGradient id="paint40_linear_122_130" x1="51.5" y1="406" x2="51.5" y2="717.381" gradientUnits="userSpaceOnUse">
<stop stop-color="#F7DD43"/>
<stop offset="1" stop-color="#F7DD43" stop-opacity="0"/>
</linearGradient>
<linearGradient id="paint41_linear_122_130" x1="51.5" y1="406" x2="51.5" y2="717.381" gradientUnits="userSpaceOnUse">
<stop stop-color="#F7DD43"/>
<stop offset="1" stop-color="#F7DD43" stop-opacity="0"/>
</linearGradient>
<linearGradient id="paint42_linear_122_130" x1="51.5" y1="406" x2="51.5" y2="717.381" gradientUnits="userSpaceOnUse">
<stop stop-color="#F7DD43"/>
<stop offset="1" stop-color="#F7DD43" stop-opacity="0"/>
</linearGradient>
<linearGradient id="paint43_linear_122_130" x1="51.5" y1="406" x2="51.5" y2="717.381" gradientUnits="userSpaceOnUse">
<stop stop-color="#F7DD43"/>
<stop offset="1" stop-color="#F7DD43" stop-opacity="0"/>
</linearGradient>
<linearGradient id="paint44_linear_122_130" x1="51.5" y1="406" x2="51.5" y2="717.381" gradientUnits="userSpaceOnUse">
<stop stop-color="#F7DD43"/>
<stop offset="1" stop-color="#F7DD43" stop-opacity="0"/>
</linearGradient>
<linearGradient id="paint45_linear_122_130" x1="51.5" y1="406" x2="51.5" y2="717.381" gradientUnits="userSpaceOnUse">
<stop stop-color="#F7DD43"/>
<stop offset="1" stop-color="#F7DD43" stop-opacity="0"/>
</linearGradient>
<linearGradient id="paint46_linear_122_130" x1="51.5" y1="406" x2="51.5" y2="717.381" gradientUnits="userSpaceOnUse">
<stop stop-color="#F7DD43"/>
<stop offset="1" stop-color="#F7DD43" stop-opacity="0"/>
</linearGradient>
<linearGradient id="paint47_linear_122_130" x1="937.5" y1="106" x2="937.5" y2="404.818" gradientUnits="userSpaceOnUse">
<stop stop-color="#F7DD43"/>
<stop offset="1" stop-color="#F7DD43" stop-opacity="0"/>
</linearGradient>
<linearGradient id="paint48_linear_122_130" x1="937.5" y1="106" x2="937.5" y2="404.818" gradientUnits="userSpaceOnUse">
<stop stop-color="#F7DD43"/>
<stop offset="1" stop-color="#F7DD43" stop-opacity="0"/>
</linearGradient>
<linearGradient id="paint49_linear_122_130" x1="937.5" y1="106" x2="937.5" y2="404.818" gradientUnits="userSpaceOnUse">
<stop stop-color="#F7DD43"/>
<stop offset="1" stop-color="#F7DD43" stop-opacity="0"/>
</linearGradient>
<linearGradient id="paint50_linear_122_130" x1="937.5" y1="106" x2="937.5" y2="404.818" gradientUnits="userSpaceOnUse">
<stop stop-color="#F7DD43"/>
<stop offset="1" stop-color="#F7DD43" stop-opacity="0"/>
</linearGradient>
<linearGradient id="paint51_linear_122_130" x1="937.5" y1="106" x2="937.5" y2="404.818" gradientUnits="userSpaceOnUse">
<stop stop-color="#F7DD43"/>
<stop offset="1" stop-color="#F7DD43" stop-opacity="0"/>
</linearGradient>
<linearGradient id="paint52_linear_122_130" x1="937.5" y1="106" x2="937.5" y2="404.818" gradientUnits="userSpaceOnUse">
<stop stop-color="#F7DD43"/>
<stop offset="1" stop-color="#F7DD43" stop-opacity="0"/>
</linearGradient>
<linearGradient id="paint53_linear_122_130" x1="937.5" y1="106" x2="937.5" y2="404.818" gradientUnits="userSpaceOnUse">
<stop stop-color="#F7DD43"/>
<stop offset="1" stop-color="#F7DD43" stop-opacity="0"/>
</linearGradient>
<linearGradient id="paint54_linear_122_130" x1="937.5" y1="106" x2="937.5" y2="404.818" gradientUnits="userSpaceOnUse">
<stop stop-color="#F7DD43"/>
<stop offset="1" stop-color="#F7DD43" stop-opacity="0"/>
</linearGradient>
<linearGradient id="paint55_linear_122_130" x1="937.5" y1="106" x2="937.5" y2="404.818" gradientUnits="userSpaceOnUse">
<stop stop-color="#F7DD43"/>
<stop offset="1" stop-color="#F7DD43" stop-opacity="0"/>
</linearGradient>
<linearGradient id="paint56_linear_122_130" x1="937.5" y1="106" x2="937.5" y2="404.818" gradientUnits="userSpaceOnUse">
<stop stop-color="#F7DD43"/>
<stop offset="1" stop-color="#F7DD43" stop-opacity="0"/>
</linearGradient>
<linearGradient id="paint57_linear_122_130" x1="937.5" y1="106" x2="937.5" y2="404.818" gradientUnits="userSpaceOnUse">
<stop stop-color="#F7DD43"/>
<stop offset="1" stop-color="#F7DD43" stop-opacity="0"/>
</linearGradient>
<linearGradient id="paint58_linear_122_130" x1="937.5" y1="106" x2="937.5" y2="404.818" gradientUnits="userSpaceOnUse">
<stop stop-color="#F7DD43"/>
<stop offset="1" stop-color="#F7DD43" stop-opacity="0"/>
</linearGradient>
<linearGradient id="paint59_linear_122_130" x1="937.5" y1="106" x2="937.5" y2="404.818" gradientUnits="userSpaceOnUse">
<stop stop-color="#F7DD43"/>
<stop offset="1" stop-color="#F7DD43" stop-opacity="0"/>
</linearGradient>
<linearGradient id="paint60_linear_122_130" x1="937.5" y1="106" x2="937.5" y2="404.818" gradientUnits="userSpaceOnUse">
<stop stop-color="#F7DD43"/>
<stop offset="1" stop-color="#F7DD43" stop-opacity="0"/>
</linearGradient>
<linearGradient id="paint61_linear_122_130" x1="937.5" y1="106" x2="937.5" y2="404.818" gradientUnits="userSpaceOnUse">
<stop stop-color="#F7DD43"/>
<stop offset="1" stop-color="#F7DD43" stop-opacity="0"/>
</linearGradient>
<linearGradient id="paint62_linear_122_130" x1="937.5" y1="106" x2="937.5" y2="404.818" gradientUnits="userSpaceOnUse">
<stop stop-color="#F7DD43"/>
<stop offset="1" stop-color="#F7DD43" stop-opacity="0"/>
</linearGradient>
<linearGradient id="paint63_linear_122_130" x1="937.5" y1="106" x2="937.5" y2="404.818" gradientUnits="userSpaceOnUse">
<stop stop-color="#F7DD43"/>
<stop offset="1" stop-color="#F7DD43" stop-opacity="0"/>
</linearGradient>
<linearGradient id="paint64_linear_122_130" x1="937.5" y1="106" x2="937.5" y2="404.818" gradientUnits="userSpaceOnUse">
<stop stop-color="#F7DD43"/>
<stop offset="1" stop-color="#F7DD43" stop-opacity="0"/>
</linearGradient>
<linearGradient id="paint65_linear_122_130" x1="937.5" y1="106" x2="937.5" y2="404.818" gradientUnits="userSpaceOnUse">
<stop stop-color="#F7DD43"/>
<stop offset="1" stop-color="#F7DD43" stop-opacity="0"/>
</linearGradient>
<linearGradient id="paint66_linear_122_130" x1="937.5" y1="106" x2="937.5" y2="404.818" gradientUnits="userSpaceOnUse">
<stop stop-color="#F7DD43"/>
<stop offset="1" stop-color="#F7DD43" stop-opacity="0"/>
</linearGradient>
<linearGradient id="paint67_linear_122_130" x1="937.5" y1="106" x2="937.5" y2="404.818" gradientUnits="userSpaceOnUse">
<stop stop-color="#F7DD43"/>
<stop offset="1" stop-color="#F7DD43" stop-opacity="0"/>
</linearGradient>
<linearGradient id="paint68_linear_122_130" x1="937.5" y1="106" x2="937.5" y2="404.818" gradientUnits="userSpaceOnUse">
<stop stop-color="#F7DD43"/>
<stop offset="1" stop-color="#F7DD43" stop-opacity="0"/>
</linearGradient>
<linearGradient id="paint69_linear_122_130" x1="937.5" y1="106" x2="937.5" y2="404.818" gradientUnits="userSpaceOnUse">
<stop stop-color="#F7DD43"/>
<stop offset="1" stop-color="#F7DD43" stop-opacity="0"/>
</linearGradient>
<linearGradient id="paint70_linear_122_130" x1="937.5" y1="106" x2="937.5" y2="404.818" gradientUnits="userSpaceOnUse">
<stop stop-color="#F7DD43"/>
<stop offset="1" stop-color="#F7DD43" stop-opacity="0"/>
</linearGradient>
<linearGradient id="paint71_linear_122_130" x1="937.5" y1="106" x2="937.5" y2="404.818" gradientUnits="userSpaceOnUse">
<stop stop-color="#F7DD43"/>
<stop offset="1" stop-color="#F7DD43" stop-opacity="0"/>
</linearGradient>
<linearGradient id="paint72_linear_122_130" x1="937.5" y1="106" x2="937.5" y2="404.818" gradientUnits="userSpaceOnUse">
<stop stop-color="#F7DD43"/>
<stop offset="1" stop-color="#F7DD43" stop-opacity="0"/>
</linearGradient>
<linearGradient id="paint73_linear_122_130" x1="937.5" y1="106" x2="937.5" y2="404.818" gradientUnits="userSpaceOnUse">
<stop stop-color="#F7DD43"/>
<stop offset="1" stop-color="#F7DD43" stop-opacity="0"/>
</linearGradient>
<linearGradient id="paint74_linear_122_130" x1="937.5" y1="106" x2="937.5" y2="404.818" gradientUnits="userSpaceOnUse">
<stop stop-color="#F7DD43"/>
<stop offset="1" stop-color="#F7DD43" stop-opacity="0"/>
</linearGradient>
<linearGradient id="paint75_linear_122_130" x1="937.5" y1="106" x2="937.5" y2="404.818" gradientUnits="userSpaceOnUse">
<stop stop-color="#F7DD43"/>
<stop offset="1" stop-color="#F7DD43" stop-opacity="0"/>
</linearGradient>
<linearGradient id="paint76_linear_122_130" x1="937.5" y1="106" x2="937.5" y2="404.818" gradientUnits="userSpaceOnUse">
<stop stop-color="#F7DD43"/>
<stop offset="1" stop-color="#F7DD43" stop-opacity="0"/>
</linearGradient>
<linearGradient id="paint77_linear_122_130" x1="937.5" y1="106" x2="937.5" y2="404.818" gradientUnits="userSpaceOnUse">
<stop stop-color="#F7DD43"/>
<stop offset="1" stop-color="#F7DD43" stop-opacity="0"/>
</linearGradient>
<linearGradient id="paint78_linear_122_130" x1="937.5" y1="106" x2="937.5" y2="404.818" gradientUnits="userSpaceOnUse">
<stop stop-color="#F7DD43"/>
<stop offset="1" stop-color="#F7DD43" stop-opacity="0"/>
</linearGradient>
<linearGradient id="paint79_linear_122_130" x1="937.5" y1="106" x2="937.5" y2="404.818" gradientUnits="userSpaceOnUse">
<stop stop-color="#F7DD43"/>
<stop offset="1" stop-color="#F7DD43" stop-opacity="0"/>
</linearGradient>
<linearGradient id="paint80_linear_122_130" x1="937.5" y1="106" x2="937.5" y2="404.818" gradientUnits="userSpaceOnUse">
<stop stop-color="#F7DD43"/>
<stop offset="1" stop-color="#F7DD43" stop-opacity="0"/>
</linearGradient>
<linearGradient id="paint81_linear_122_130" x1="937.5" y1="106" x2="937.5" y2="404.818" gradientUnits="userSpaceOnUse">
<stop stop-color="#F7DD43"/>
<stop offset="1" stop-color="#F7DD43" stop-opacity="0"/>
</linearGradient>
<linearGradient id="paint82_linear_122_130" x1="937.5" y1="106" x2="937.5" y2="404.818" gradientUnits="userSpaceOnUse">
<stop stop-color="#F7DD43"/>
<stop offset="1" stop-color="#F7DD43" stop-opacity="0"/>
</linearGradient>
<linearGradient id="paint83_linear_122_130" x1="937.5" y1="106" x2="937.5" y2="404.818" gradientUnits="userSpaceOnUse">
<stop stop-color="#F7DD43"/>
<stop offset="1" stop-color="#F7DD43" stop-opacity="0"/>
</linearGradient>
<linearGradient id="paint84_linear_122_130" x1="937.5" y1="106" x2="937.5" y2="404.818" gradientUnits="userSpaceOnUse">
<stop stop-color="#F7DD43"/>
<stop offset="1" stop-color="#F7DD43" stop-opacity="0"/>
</linearGradient>
<linearGradient id="paint85_linear_122_130" x1="937.5" y1="106" x2="937.5" y2="404.818" gradientUnits="userSpaceOnUse">
<stop stop-color="#F7DD43"/>
<stop offset="1" stop-color="#F7DD43" stop-opacity="0"/>
</linearGradient>
<linearGradient id="paint86_linear_122_130" x1="937.5" y1="106" x2="937.5" y2="404.818" gradientUnits="userSpaceOnUse">
<stop stop-color="#F7DD43"/>
<stop offset="1" stop-color="#F7DD43" stop-opacity="0"/>
</linearGradient>
<linearGradient id="paint87_linear_122_130" x1="937.5" y1="106" x2="937.5" y2="404.818" gradientUnits="userSpaceOnUse">
<stop stop-color="#F7DD43"/>
<stop offset="1" stop-color="#F7DD43" stop-opacity="0"/>
</linearGradient>
<linearGradient id="paint88_linear_122_130" x1="937.5" y1="106" x2="937.5" y2="404.818" gradientUnits="userSpaceOnUse">
<stop stop-color="#F7DD43"/>
<stop offset="1" stop-color="#F7DD43" stop-opacity="0"/>
</linearGradient>
<linearGradient id="paint89_linear_122_130" x1="937.5" y1="106" x2="937.5" y2="404.818" gradientUnits="userSpaceOnUse">
<stop stop-color="#F7DD43"/>
<stop offset="1" stop-color="#F7DD43" stop-opacity="0"/>
</linearGradient>
<linearGradient id="paint90_linear_122_130" x1="937.5" y1="106" x2="937.5" y2="404.818" gradientUnits="userSpaceOnUse">
<stop stop-color="#F7DD43"/>
<stop offset="1" stop-color="#F7DD43" stop-opacity="0"/>
</linearGradient>
<linearGradient id="paint91_linear_122_130" x1="937.5" y1="106" x2="937.5" y2="404.818" gradientUnits="userSpaceOnUse">
<stop stop-color="#F7DD43"/>
<stop offset="1" stop-color="#F7DD43" stop-opacity="0"/>
</linearGradient>
<linearGradient id="paint92_linear_122_130" x1="937.5" y1="106" x2="937.5" y2="404.818" gradientUnits="userSpaceOnUse">
<stop stop-color="#F7DD43"/>
<stop offset="1" stop-color="#F7DD43" stop-opacity="0"/>
</linearGradient>
<linearGradient id="paint93_linear_122_130" x1="937.5" y1="106" x2="937.5" y2="404.818" gradientUnits="userSpaceOnUse">
<stop stop-color="#F7DD43"/>
<stop offset="1" stop-color="#F7DD43" stop-opacity="0"/>
</linearGradient>
<clipPath id="clip0_122_130">
<rect width="1024" height="753" fill="white"/>
</clipPath>
</defs>
</svg>
